<?xml version="1.0" encoding="utf-8"?>
<!-- Generator: Adobe Illustrator 16.0.3, SVG Export Plug-In . SVG Version: 6.00 Build 0)  -->
<!DOCTYPE svg PUBLIC "-//W3C//DTD SVG 1.1//EN" "http://www.w3.org/Graphics/SVG/1.1/DTD/svg11.dtd">
<svg version="1.1" id="Capa_1" xmlns="http://www.w3.org/2000/svg" xmlns:xlink="http://www.w3.org/1999/xlink" x="0px" y="0px"
	 width="562.679px" height="530.854px" viewBox="0 0 562.679 530.854" enable-background="new 0 0 562.679 530.854"
	 xml:space="preserve">
<g>
	<path fill-rule="evenodd" clip-rule="evenodd" fill="#198132" d="M479.419,153.507c-0.264,3.648,1.924,6.603,2.541,10.071
		c1.164,6.556,2.09,13.121,2.998,19.719c1.293,9.376,1.227,18.752,1.029,28.131c-0.189,8.977-1.539,17.84-2.834,26.734
		c-2.047,14.047-6.168,27.407-11.219,40.388c-3.865,9.934-8.719,19.467-14.484,28.467c-5.752,8.982-11.98,17.461-18.785,25.592
		c-8.057,9.623-17.176,17.918-26.881,25.451c-8.166,6.34-16.959,11.711-26.109,16.496c-11.113,5.809-22.633,10.348-34.533,13.703
		c-6.773,1.906-13.773,3.035-20.771,4.098c-10.4,1.58-20.805,1.967-31.238,1.688c-6.947-0.186-13.84-1.393-20.744-2.375
		c-10.268-1.461-20.109-4.438-29.914-7.74c-13.613-4.584-26.364-11.211-38.317-19.305c-9.434-6.385-18.276-13.686-26.568-21.813
		c-9.522-9.332-17.842-19.668-25.179-30.824c-8.174-12.428-14.949-25.707-19.888-40.064c-2.559-7.439-4.963-14.917-6.826-22.529
		c-1.615-6.599-2.549-13.407-3.404-20.218c-1.363-10.858-2.134-21.739-1.602-32.64c0.347-7.099,1.284-14.188,2.208-21.266
		c1.271-9.747,3.476-19.228,6.229-28.54c2.016-6.82,4.274-13.637,7.471-20.016c0.389-0.776,0.588-1.657,0.875-2.489
		c0.394-0.143,1.099,1.151,1.192-0.223c0.076-1.12,0.777-1.959,1.512-2.107c1.99-0.404,1.717-1.485,1.153-2.896
		c-0.186-0.468-0.674-1.424,0.221-1.346c0.695,0.062,0.984-1.592,1.787-0.328c0.379,0.597,0.964,0.671,1.499,0.068
		c0.688-0.777-0.311-0.995-0.414-1.489c-0.268-1.271-1.718-2.225-0.919-3.773c1.26-0.911,2.182-0.97,2.967,0.77
		c0.246,0.545,1.454,1.582,2.149,0.912c0.965-0.929-0.052-1.485-0.842-2.003c-0.773-0.505-0.866-1.601-1.537-2.286
		c-0.83-0.849,0.149-1.639,0.511-2.196c0.441-0.682,1.241-0.322,1.795,0.26c0.711,0.747,1.408,1.512,2.139,2.238
		c0.499,0.496,1.196,0.637,1.627,0.187c0.621-0.649-0.117-1.104-0.51-1.527c-1.443-1.548-2.991-3.014-3.474-5.266
		c0.154-0.686,0.557-1.11,1.206-1.272c0.936-0.103,1.329,0.489,1.833,1.25c1.562,2.357,4.63,2.679,6.733,0.819
		c0.69-0.609,1.574-1.377,0.874-2.355c-0.483-0.675-1.472-0.528-2.196,0.007c-0.403,0.298-0.689,0.79-1.226,0.864
		c-1.328,0.186-2.798,0.18-3.455-1.151c-0.648-1.31,0.157-2.39,1.439-3.017c0.45,0.986-0.056,2.995,1.332,2.751
		c1.478-0.261,0.53-2.117,0.658-3.244c0.153-1.354-1.105-1.99-1.771-2.926c4.597-7.206,10.215-13.511,15.557-20.081
		c6.972-8.575,15.226-15.606,23.526-22.496c6.046-5.018,12.69-9.331,19.501-13.296c11.486-6.688,23.406-12.197,35.948-16.224
		c7.605-2.441,15.333-4.239,23.185-5.616c11.371-1.994,22.805-2.86,34.299-2.435c8.896,0.328,17.717,1.479,26.533,3.032
		c10.918,1.924,21.521,5.004,31.773,9.135c8.426,3.396,16.674,7.37,24.52,12.297c7.102,4.461,14.07,9.051,20.648,14.319
		c8.793,7.043,16.771,14.952,24.27,23.539c6.084,6.968,11.223,14.622,16.477,22.201c3.479,5.019,6.184,10.616,8.969,16.13
		c4.535,8.974,8.699,18.09,11.441,27.871c-0.264,1.26-1.438,1.323-2.244,1.823c-1.881,1.168-3.059,2.689-2.334,5.077
		c0.713,2.36,2.676,3.545,4.902,3.296C477.615,153.42,478.523,153.503,479.419,153.507z"/>
	<path fill-rule="evenodd" clip-rule="evenodd" fill="#198132" d="M109.853,328.715c-6.808,12.336-13.306,24.855-20.274,37.097
		c-4.727,8.302-8.779,17.033-13.546,25.309c-5.031,8.735-9.638,17.719-14.539,26.527c-4.186,7.521-8.281,15.098-12.413,22.651
		c-5.21,9.526-10.443,19.037-15.615,28.586c-4.187,7.73-8.249,15.537-12.453,23.258c-5.009,9.199-10.136,18.327-15.158,27.519
		c-1.848,3.381-3.541,6.857-5.854,10.001c39.86-104.948,79.72-209.896,119.581-314.844c0.172,0.021,0.344,0.04,0.517,0.061
		c0.607,6.319,0.894,12.695,1.904,18.943c1.21,7.47,2.484,14.944,4.36,22.292c2.19,8.584,4.917,16.97,7.831,25.292
		c0.359,1.026,0.275,1.531-0.166,2.466c-4.496,9.556-9.58,18.745-15.126,27.656c-3.38,1.865-5.687,4.717-7.069,8.454
		C110.789,322.801,109.454,325.536,109.853,328.715z"/>
	<path fill-rule="evenodd" clip-rule="evenodd" fill="#198132" d="M137.598,494.216c-4.997,2.412-9.956,4.918-14.997,7.219
		c-11.787,5.38-23.383,11.207-35.258,16.389c-7.49,3.269-14.714,7.216-22.096,10.771c-2.088,1.006-4.309,1.704-6.617,2.26
		c5.323-3.934,10.585-7.964,15.985-11.777c7.198-5.083,14.193-10.49,21.422-15.495c6.966-4.823,13.811-9.86,20.708-14.768
		c8.84-6.29,17.602-12.75,26.376-19.166c11.87-8.682,24-16.976,35.752-25.831c11.327-8.535,22.946-16.614,34.34-25.046
		c9.87-7.305,19.932-14.349,29.825-21.631c2.618-1.927,4.852-1.512,7.45-0.558c8.26,3.032,16.715,5.465,25.279,7.139
		c7.104,1.389,14.342,2.166,21.592,2.807c8.659,0.768,17.293,0.007,26.196,0.604c-11.319,5.333-22.426,10.558-33.527,15.797
		c-12.834,6.056-25.646,12.166-38.501,18.173c-9.871,4.611-19.824,9.028-29.688,13.657c-13.613,6.388-27.124,13.023-40.792,19.277
		c-4.605,2.107-8.99,4.813-13.896,6.175c-1.856-2.013-4.749-1.677-5.828,1.133c-0.494,1.284-1.355,1.797-2.013,2.687
		c-3.913,2.164-7.943,4.052-12.063,5.729c-0.641,0.127-1.095-0.275-1.613-0.574C141.011,486.51,137.604,488.651,137.598,494.216z"/>
	<path fill-rule="evenodd" clip-rule="evenodd" fill="#198132" d="M33.776,528.219c4.105-5.896,9.588-10.292,14.844-14.963
		c3.534-3.141,6.936-6.448,10.424-9.646c7.471-6.852,14.972-13.669,22.438-20.526c3.562-3.27,7.057-6.621,10.612-9.9
		c7.756-7.15,15.552-14.254,23.29-21.426c5.622-5.212,11.133-10.559,16.774-15.747c7.009-6.446,14.199-12.675,21.115-19.228
		c3.441-3.26,6.969-6.41,10.408-9.665c9.354-8.85,18.82-17.558,28.383-26.154c3.133-2.817,5.829-6.14,9.29-8.616
		c1.138-0.814,1.727-0.603,2.588-0.025c4.616,3.09,9.176,6.258,13.943,9.111c3.967,2.375,8.367,3.95,12.265,7.178
		C164.574,435.231,99.174,481.726,33.776,528.219z"/>
	<path fill-rule="evenodd" clip-rule="evenodd" fill="#198132" d="M57.984,486.578c4.839-5.85,9.771-11.617,14.492-17.571
		c5.129-6.469,10.462-12.752,15.532-19.282c3.288-4.237,6.979-8.212,10.271-12.474c4.62-5.985,9.785-11.466,14.139-17.718
		c2.308-3.314,5.402-6.088,7.967-9.288c7.009-8.746,14.065-17.449,21.142-26.136c4.158-5.106,8.429-10.108,12.575-15.225
		c5.456-6.731,10.826-13.54,16.269-20.282c0.909-1.125,2.002-2.084,3.18-3.294c6.729,7.538,14.248,14.285,22.205,21.063
		C150.762,406.719,105.88,446.967,61,487.214c-0.871,0.123-1.84-0.982-2.685,0.421C58.122,487.956,58.154,486.938,57.984,486.578z"
		/>
	<path fill-rule="evenodd" clip-rule="evenodd" fill="#198132" d="M505.438,194.532c0.213,4.754,0.763,8.342,0.439,11.553
		c-0.597,5.891,0.379,11.826-0.896,17.675c-0.399,1.828-0.489,3.849-0.616,5.771c-0.825,12.393-3.785,24.302-6.981,36.181
		c-3.718,13.813-9.287,26.815-15.74,39.374c-3.78,7.356-8.097,14.43-12.771,21.225c-1.073,1.561-2.352,2.513-4.146,1.027
		c-1.778-1.473-0.479-2.749,0.303-3.922c6.192-9.292,11.984-18.836,16.673-29.087c6.356-13.898,11.452-28.313,14.687-43.345
		c1.754-8.153,3.006-16.455,3.77-24.835c0.835-9.159,1.587-18.335,1.029-27.492c-0.55-9.044-1.178-18.09-2.772-27.081
		c-1.083-6.104-2.269-12.158-3.708-18.169c-0.386-1.605,0.667-2.559,1.702-2.877c1.468-0.451,2.686,0.425,3.081,2.09
		c0.643,2.7,1.231,5.416,1.795,8.136c1.701,8.208,2.823,16.502,3.757,24.852C505.428,189.055,505.196,192.459,505.438,194.532z"/>
	<path fill-rule="evenodd" clip-rule="evenodd" fill="#198132" d="M154.495,84.672c-0.362-2.046,1.358-2.965,2.197-4.159
		c6.677-9.504,14.081-18.392,22.433-26.271c11.724-11.061,24.302-20.924,38.143-28.948c12.315-7.14,25.252-12.665,38.621-17.07
		c5.824-1.919,11.823-3.258,17.768-4.753c1.125-0.282,2.373,0.165,2.628,1.583c0.306,1.697,0.004,3.041-2.045,3.523
		c-6.876,1.62-13.737,3.296-20.468,5.552c-9.259,3.104-18.153,7.079-26.892,11.555c-12.852,6.581-24.683,14.802-35.806,24.176
		c-7.149,6.025-13.831,12.654-19.924,19.841c-4.249,5.01-8.711,9.896-12.094,15.695c-0.593,1.016-1.465,2.649-3.014,1.969
		C155.159,86.976,154.121,86.086,154.495,84.672z"/>
	<path fill-rule="evenodd" clip-rule="evenodd" fill="#198132" d="M519.384,207.222c0.241,5.12,0.138,11.742-0.667,18.28
		c-1.2,9.771-2.594,19.493-4.591,29.167c-2.765,13.396-7.123,26.146-11.791,38.843c-0.202,0.551-0.549,1.042-0.821,1.564
		c-0.752,1.44-1.644,2.28-3.363,1.432c-1.599-0.791-1.283-2.099-0.872-3.254c1.179-3.311,2.649-6.51,3.766-9.843
		c3.401-10.149,6.697-20.309,8.775-30.917c1.866-9.525,3.285-19.063,4.198-28.737c1.043-11.051,0.222-22.097,0.524-33.139
		c0.036-1.34-0.044-2.566,1.729-2.59c1.401-0.021,2.31,0.096,2.617,2.045c0.256,1.622,0.488,3.215,0.493,4.85
		C519.391,198.527,519.384,202.132,519.384,207.222z"/>
	<path fill-rule="evenodd" clip-rule="evenodd" fill="#198132" d="M240.127,2.037c0.192,2.08-1.481,2.739-2.705,3.146
		c-5.983,1.991-11.57,4.941-17.146,7.852c-13.305,6.945-25.691,15.404-37.202,25.356c-5.025,4.346-9.589,9.198-14.552,13.593
		c-1.256,1.113-2.241,2.559-4.03,0.602c-1.866-2.042-0.26-3.121,0.849-4.223c6.838-6.804,13.788-13.473,21.362-19.378
		c11.624-9.064,24.018-16.761,37.093-23.234c3.879-1.921,7.835-3.677,11.812-5.362C237.868-0.57,240.036,0.347,240.127,2.037z"/>
	<path fill-rule="evenodd" clip-rule="evenodd" fill="#198132" d="M133.652,330.099"/>
	<path fill-rule="evenodd" clip-rule="evenodd" fill="#198132" d="M479.054,152.74c-2.12-0.563-4.547,1.527-6.488-1.319
		c-2.004-2.936-1.743-5.143,1.354-7.063c0.752-0.467,1.947-0.521,2.119-1.803C477.084,145.937,478.575,149.172,479.054,152.74z"/>
	<path fill-rule="evenodd" clip-rule="evenodd" fill="#198132" d="M160.517,102.743c0.554-2.907,2.764-4.702,4.222-7.002
		c1.374,1.06,2.098,2.452,1.79,4.267c-0.122,0.71,0.616,2.006-0.63,2.015c-0.976,0.008-1.306-1.077-1.163-2.142
		c0.038-0.289-0.048-0.596-0.079-0.931c-1.366,0.828-2.524,2.154-1.47,3.483"/>
	<path fill-rule="evenodd" clip-rule="evenodd" fill="#198132" d="M167.333,102.834c0.922-0.852,2.097-1.354,2.729-0.266
		c0.719,1.235-0.646,2.066-1.497,2.674"/>
	<path fill-rule="evenodd" clip-rule="evenodd" fill="#198132" d="M109.853,328.715c0.444-7.236,2.758-13.377,9.048-17.187
		C116.33,317.519,113.138,323.145,109.853,328.715z"/>
	<path fill-rule="evenodd" clip-rule="evenodd" fill="#198132" d="M137.598,494.216c-0.021-5.424,3.449-7.695,7.793-5.147
		c0.554,0.325,1.065,0.993,1.856,0.692C143.983,491.129,141.13,493.494,137.598,494.216z"/>
	<path fill-rule="evenodd" clip-rule="evenodd" fill="#198132" d="M159.311,104.016c0.477,2.354,2.142,3.819,3.624,5.423
		c0.336,0.362,0.891,0.778,0.489,1.299c-0.402,0.521-1.104,0.482-1.582,0.043c-0.83-0.765-1.595-1.611-2.359-2.451
		c-0.558-0.614-1.542-0.869-1.737-0.257c-0.226,0.704-1.558,1.286-0.511,2.38c0.603,0.63,0.896,1.639,1.559,2.142
		c0.732,0.558,1.766,0.979,0.936,1.963c-0.78,0.925-1.812-0.334-2.128-0.739c-0.935-1.197-1.633-2.228-3.115-0.89
		c1.093-2.118,1.445-4.74,3.338-6.287C158.744,105.889,158.229,104.493,159.311,104.016z"/>
	<path fill-rule="evenodd" clip-rule="evenodd" fill="#198132" d="M57.984,486.578c0.174,0.357,0.125,1.382,0.329,1.053
		c0.854-1.372,1.814-0.297,2.687-0.417c-2.775,4.05-7.334,5.909-10.187,9.863c-0.258-0.253-0.516-0.504-0.773-0.755
		C52.688,493.074,55.335,489.826,57.984,486.578z"/>
	<path fill-rule="evenodd" clip-rule="evenodd" fill="#198132" d="M154.486,112.928c-0.592,1.692,0.524,2.843,1.208,4.112
		c0.213,0.395,0.823,0.609,0.154,1.146c-0.402,0.321-0.918,0.854-1.214,0.226c-0.726-1.541-1.619,0.348-2.333-0.242
		c-0.542,0.779,0.017,1.352,0.206,2.07c0.219,0.825,0.993,2.298-1.123,2.297c-0.682-0.001-1.718,0.933-1.725,2.241
		c-0.011,1.937-0.884-0.313-1.205,0.244C150.545,121.035,151.802,116.585,154.486,112.928z"/>
	<path fill-rule="evenodd" clip-rule="evenodd" fill="#198132" d="M159.311,484.031c1.602-0.72,1.766-2.685,2.988-3.797
		c1.71-1.554,3.222-2.108,4.853-0.022C164.869,482.242,162.143,483.259,159.311,484.031z"/>
	<path fill-rule="evenodd" clip-rule="evenodd" fill="#FFFFFF" d="M218.415,170.61c-1.558-6.564-0.819-13.436-2.446-19.985
		c-0.072-0.292,0.022-0.631,0.04-0.946c0.34-6.297-1.031-12.53-0.616-18.834c0.19-2.9-0.935-5.622-0.22-8.765
		c0.681-2.995,2.676-4.6,4.231-6.424c3.274-3.84,7.277-6.977,10.889-10.508c11.452-11.198,23.508-21.582,36.748-30.355
		c2.994-1.984,6.181-1.997,9.854-1.503c7.779,1.046,15.42,2.663,22.968,4.704c8.59,2.322,17.068,5.063,25.272,8.762
		c5.013,2.26,9.791,4.887,14.508,7.709c1.214,0.728,1.57,1.675,1.909,3.129c1.163,5.004,2.552,9.943,3.607,14.989
		c1.362,6.519,3.23,12.908,4.184,19.54c0.668,4.64,1.763,9.211,2.596,13.826c0.589,3.265,1.073,6.551,1.577,9.831
		c0.246,1.604-0.159,2.689-1.57,3.801c-5.846,4.604-11.355,9.691-16.83,14.745c-5.849,5.399-11.874,10.606-17.553,16.234
		c-6.806,6.747-13.945,13.122-20.976,19.613c-1.753,1.617-3.902,2.831-5.404,4.656c-1.409,1.711-2.821,1.706-4.511,1.213
		c-11.565-3.372-23.209-6.483-34.658-10.248c-9.254-3.043-18.541-6.038-27.524-10.009c-2.705-1.197-2.075-3.228-2.578-5.033
		C220.08,184.172,219.541,177.329,218.415,170.61z"/>
	<path fill-rule="evenodd" clip-rule="evenodd" fill="#FFFFFF" d="M320.348,298.798c-4.747-1.557-9.005-4.274-13.505-6.417
		c-1.323-0.629-1.304-2.381-1.544-3.721c-1.241-6.912-2.728-13.801-3.495-20.774c-0.567-5.153-1.332-10.277-2.046-15.396
		c-0.985-7.069-0.844-14.277-2.385-21.251c-1.103-4.991,2.168-7.448,5.079-9.845c4.094-3.374,7.79-7.206,11.768-10.706
		c7.371-6.487,14.46-13.321,21.751-19.914c6.584-5.954,13.135-11.967,19.659-18.004c1.323-1.223,2.618-2.5,4.048-3.567
		c1.19-0.888,2.517-1.184,4.066-0.641c17.525,6.141,34.852,12.839,52.133,19.707c4.745,1.886,4.73,5.644,5.682,9.005
		c2.021,7.145,3.746,14.44,4.819,21.8c0.583,4.001,1.074,8.091,1.413,12.173c0.773,9.254,0.25,18.51,0.579,27.753
		c0.135,3.796-1.153,6.68-3.465,9.36c-7.275,8.436-14.768,16.67-22.683,24.415c-8.1,7.925-15.886,16.23-24.532,23.529
		c-0.945,0.797-1.545,0.753-2.781,0.521c-8.729-1.638-17.001-5.016-25.56-7.291c-6.216-1.651-12.162-4.428-18.238-6.672
		c-0.533-0.198-1.143-0.169-1.717-0.246C326.585,300.802,323.381,300.026,320.348,298.798z"/>
	<path fill-rule="evenodd" clip-rule="evenodd" fill="#FFFFFF" d="M299.383,381.577c-10.676-0.431-21.113-2.486-31.392-5.397
		c-5.491-1.557-10.867-3.58-16.281-5.44c-3.63-1.248-6.14-3.494-6.811-7.8c-1.226-7.856-3.24-15.543-3.653-23.578
		c-0.37-7.179-0.63-6.801,6.317-8.209c6.139-1.245,12.165-3.149,18.093-5.405c8.292-3.152,16.179-7.135,23.736-11.857
		c3.954-2.472,7.648-5.385,11.142-8.546c1.061-0.962,1.85-0.938,3.141-0.367c6.345,2.808,12.836,5.277,19.197,7.985
		c15.318,6.522,31.117,11.229,47.003,15.746c1.533,0.437,2.504,1.053,2.415,3.219c-0.272,6.565-1.255,13.043-1.867,19.563
		c-0.116,1.227-1.308,2.108-2.355,2.69c-14.851,8.242-29.633,16.655-45.791,21.845c-5.824,1.87-11.631,3.816-17.509,5.479
		C303.087,381.979,301.185,381.577,299.383,381.577z"/>
	<path fill-rule="evenodd" clip-rule="evenodd" fill="#FFFFFF" d="M203.341,134.49c-0.194,9.551,1.269,18.988,1.922,28.476
		c0.588,8.542,2.152,17.025,3.614,25.473c0.256,1.477,0.266,3.111,1.044,4.639c1.68,3.296-0.115,5.882-2.085,8.379
		c-6.754,8.565-12.139,18.025-16.583,28.126c-3.114,7.075-5.217,14.531-7.688,21.846c-0.422,1.249-0.354,3.597-1.069,3.815
		c-1.837,0.562-3.997,0.612-5.89,0.188c-6.726-1.511-13.416-3.22-20.074-5.041c-2.327-0.637-4.512-1.842-6.781-2.731
		c-1.488-0.585-1.616-2.056-1.871-3.299c-1.418-6.921-2.643-13.854-3.144-20.958c-0.383-5.446-0.911-10.878-1.154-16.347
		c-0.483-10.839,1.152-21.179,5.188-31.2c4.554-11.313,9.675-22.221,16.18-32.489c4.456-7.034,9.541-13.485,14.423-20.136
		c0.417-0.569,1.023-0.769,1.825-0.782c6.902-0.112,13.724,1.081,20.6,1.427c1.542,0.077,1.34,2.53,1.481,3.944
		C203.5,130.02,203.338,132.265,203.341,134.49z"/>
	<path fill-rule="evenodd" clip-rule="evenodd" fill="#FFFFFF" d="M474.751,164.487c-0.189,4.012,1.5,7.68,1.975,11.609
		c0.469,3.867,0.998,7.796,1.572,11.678c1.078,7.28,0.701,14.664,0.656,22.008c-0.049,8.115-1.153,16.101-2.276,24.134
		c-1.472,10.523-4.054,20.636-7.314,30.632c-0.314,0.963-0.791,1.795-1.137,2.706c-1.976,5.188-1.992,5.308-6.794,3.528
		c-6.596-2.444-13.107-5.139-19.703-7.585c-1.643-0.608-1.354-1.78-1.354-2.987c-0.006-7.532,0.348-15.087-0.09-22.59
		c-0.588-10.115-1.795-20.161-3.89-30.116c-1.327-6.312-2.969-12.528-4.598-18.731c-0.467-1.777,0.203-2.65,0.76-3.362
		c6.325-8.076,10.558-17.436,14.775-26.771c2.967-6.563,5.741-13.266,7.429-20.347c0.372-1.561,1.231-1.356,1.854-1.148
		c3.557,1.187,7.088,2.471,10.565,3.893c1.001,0.407,1.21,1.719,1.547,2.777c0.98,3.08,2.001,6.146,3.006,9.216
		C472.506,156.918,473.634,160.701,474.751,164.487z"/>
	<path fill-rule="evenodd" clip-rule="evenodd" fill="#FFFFFF" d="M297.633,28.906c6.137-0.999,12.311-0.789,18.458-0.59
		c8.71,0.281,17.312,1.52,25.938,3.015c13.743,2.383,26.634,7.325,39.359,12.897c3.336,1.46,6.437,3.602,9.813,5.093
		c1.114,0.492,0.698,1.787,0.975,2.74c1.132,3.915,0.977,8.015,1.737,11.977c0.329,1.716-0.475,2.302-2.142,2.471
		c-6.894,0.699-13.443,2.955-19.995,5.192c-8.365,2.856-16.27,6.839-24.15,10.876c-1.065,0.545-2.112,0.762-3.039,0.171
		c-9.097-5.796-18.977-9.576-28.991-13.174c-8.938-3.21-18.113-5.358-27.285-7.429c-3.406-0.769-7.003-1.665-10.626-1.423
		c-1.585,0.105-2.27-0.857-2.572-2.357c-1.4-6.933-2.823-13.86-4.239-20.79c-0.724-3.539,0.989-4.419,4.028-5.119
		C282.422,30.724,290,29.624,297.633,28.906z"/>
	<path fill-rule="evenodd" clip-rule="evenodd" fill="#FFFFFF" d="M232.014,360.786c-6.566-3.194-12.28-7.429-18.021-11.609
		c-9.861-7.183-18.534-15.82-26.657-25.034c-7.211-8.178-13.514-17.128-19.013-26.722c-5.097-8.89-9.389-18.182-13.211-27.731
		c-0.273-0.683-0.538-1.46-0.714-2.239c-0.342-1.518-1.311-2.879-1.073-4.577c1.497,0.323,3.036,0.507,4.483,0.994
		c6.825,2.295,13.811,3.725,20.937,4.351c2.619,0.229,4.422,1.144,5.698,3.86c5.126,10.914,11.84,20.737,18.916,30.336
		c5.199,7.055,10.681,13.807,16.713,20.06c2.04,2.115,4.071,4.326,6.428,5.983c1.731,1.218,2.151,2.602,2.183,4.517
		C228.837,342.225,230.441,351.277,232.014,360.786z"/>
	<path fill-rule="evenodd" clip-rule="evenodd" fill="#198132" d="M460.375,124.541c-0.306,0.293-0.38,0.426-0.455,0.426
		c-6.025,0.017-7.193-5.673-9.466-9.589c-2.456-4.232-5.368-8.056-8.073-12.057C438.194,97.126,433,91.807,428,86.401
		c-6.076-6.57-12.975-12.299-20.416-17.149c-1.359-0.886-1.586-1.718-1.637-3.153c-0.053-1.504,0.565-3.094-0.489-4.566
		c-0.245-0.343-0.525-1.612,0.277-1.932c0.46-0.184,1.283,0.226,1.771,0.61c5.436,4.298,10.853,8.603,15.923,13.408
		c4.665,4.419,8.824,9.328,13.188,14.039c5.623,6.07,10.081,13.106,14.596,20.076C454.693,113.104,457.991,118.605,460.375,124.541z
		"/>
	<path fill-rule="evenodd" clip-rule="evenodd" fill="#198132" d="M355.442,375.68c6.229-3.572,12.532-7.009,18.651-10.776
		c2.938-1.809,5.549-1.013,8.4,0.1C374.018,370.052,364.879,373.14,355.442,375.68z"/>
	<path fill-rule="evenodd" clip-rule="evenodd" fill="#198132" d="M320.348,298.798c3.005,1.3,6.26,1.943,9.047,3.819
		c-1.065-0.207-1.932,0.038-2.13,1.311c-0.483,3.124-2.711,3.581-4.864,2.903c-2.772-0.871-3.571-3.949-2.266-6.858
		C320.292,299.624,320.281,299.191,320.348,298.798z"/>
	<path fill-rule="evenodd" clip-rule="evenodd" fill="#198132" d="M163.042,123.724c1.8-5.779,5.369-10.51,8.019-15.785
		c1.141,4.237,0.967,4.111-1.672,8.15C167.541,118.916,164.694,120.727,163.042,123.724z"/>
	<path fill-rule="evenodd" clip-rule="evenodd" fill="#198132" d="M474.751,164.487c-1.005-3.819-2.01-7.639-3.016-11.458
		c2.228-0.327,3.386,0.438,3.045,3.056c-0.166,1.274-0.029,2.594-0.029,4.111c1.646-0.521,2.215-1.544,2.706-2.649
		c0.604,0.368,0.966-1.159,1.716-0.194c0.477,0.611,0.384,0.921,0.021,1.572c-0.587,1.056-1.178,1.858-2.261,2.51
		C475.95,162.028,474.632,162.813,474.751,164.487z"/>
</g>
<path fill-rule="evenodd" clip-rule="evenodd" fill="#198132" d="M50.04,471.547c3.688-6.636,7.482-13.208,11.035-19.925
	c3.859-7.297,7.954-14.45,11.745-21.797c2.458-4.768,5.36-9.35,7.817-14.142c3.447-6.729,7.523-13.062,10.661-20.004
	c1.663-3.681,4.198-6.974,6.134-10.589c5.292-9.88,10.638-19.727,16.006-29.561c3.154-5.78,6.438-11.479,9.58-17.268
	c4.133-7.615,8.167-15.291,12.286-22.915c0.688-1.271,1.587-2.415,2.523-3.819c7.993,6.18,16.62,11.438,25.682,16.648
	c-36.856,47.894-73.622,95.669-110.387,143.444c-0.834,0.279-1.988-0.63-2.563,0.904C50.427,472.876,50.273,471.87,50.04,471.547z"
	/>
<g>
	<path fill="#8ABC20" d="M267.361,134.825c1.843-0.887,3.741-1.607,5.837-1.2c4.787,0.93,8.397,5.523,8.638,11.071
		c0.399,9.259-4.281,17.262-11.938,20.41c-1.514,0.623-2.908,0.032-3.301-1.398c-0.449-1.634,0.206-3.03,1.836-3.613
		c5.032-1.801,8.072-5.619,9.003-11.575c0.327-2.099,0.21-4.175-0.636-6.137c-1.135-2.629-3.522-3.933-5.977-3.251
		c-2.238,0.623-3.625,2.798-3.634,5.717c-0.007,1.691,0.021,3.382-0.008,5.072c-0.032,1.778-0.902,2.818-2.298,2.826
		c-1.432,0.008-2.299-0.948-2.305-2.792c-0.028-8.104-0.025-16.208-0.002-24.311c0.006-1.851,0.887-2.948,2.201-2.958
		c1.363-0.012,2.316,1.166,2.354,3.031c0.057,2.969,0.057,5.94,0.085,8.909C267.216,134.665,267.271,134.704,267.361,134.825z"/>
	<path fill="#198132" d="M316.413,133.741c2.253-0.083,4.307,0.662,6.19,2.033c1.367,0.995,1.706,2.142,1.047,3.315
		c-0.647,1.154-1.699,1.259-3.066,0.307c-2.821-1.966-5.723-1.886-8.084,0.224c-2.632,2.351-3.332,6.457-1.654,9.701
		c1.726,3.334,5.397,4.729,8.468,3.183c0.552-0.279,1.049-0.699,1.577-1.042c1.079-0.698,2.065-0.65,2.772,0.63
		c0.694,1.262,0.151,2.199-0.74,2.985c-3.791,3.34-9.674,3.095-13.254-0.554c-3.176-3.236-4.276-8.731-2.692-13.444
		C308.511,136.51,312.083,133.733,316.413,133.741z"/>
	<path fill="#8BBC21" d="M252.816,133.392c2.188-0.005,4.214,0.654,6.061,1.999c1.384,1.007,1.788,2.292,1.114,3.451
		c-0.648,1.116-1.693,1.181-3.086,0.19c-3.05-2.169-6.378-1.772-8.748,1.066c-1.737,2.08-2.199,4.568-1.512,7.273
		c0.728,2.861,2.456,4.647,4.989,5.301c2.076,0.536,2.833,1.211,2.637,2.588c-0.214,1.506-1.269,2.034-3.311,1.658
		c-5.299-0.977-8.715-6.502-8.205-13.274C243.191,137.873,247.588,133.392,252.816,133.392z"/>
	<path fill="#198132" d="M289.785,147.102c1.829-0.014,3.658-0.003,5.488-0.003c1.88,0,3.761,0.03,5.641-0.008
		c2.276-0.045,3.426-1.638,3.098-4.235c-0.318-2.521-1.335-4.616-2.997-6.29c-3.438-3.463-8.088-3.92-11.994-1.198
		c-3.884,2.706-5.779,8.047-4.605,13.14c2.002,8.7,10.356,11.181,16.333,6.507c1.02-0.797,1.464-1.884,0.752-3.128
		c-0.706-1.238-1.767-1.188-2.824-0.517c-0.312,0.197-0.599,0.441-0.915,0.625c-3.355,1.965-7.479,0.677-9.011-2.809
		C288.021,147.527,288.219,147.114,289.785,147.102z M288.85,141.323c1.261-2.312,3.168-3.431,5.478-3.449
		c2.233-0.017,3.972,1.213,5.141,3.421c0.601,1.135,0.391,1.712-0.855,1.673c-1.521-0.048-3.043-0.011-4.564-0.012
		c-1.472,0-2.942-0.009-4.413,0.002C288.477,142.968,288.286,142.358,288.85,141.323z"/>
</g>
<g>
	<path fill="#8ABC20" d="M282.243,340.559c1.677-1.171,3.436-2.186,5.57-2.118c4.874,0.151,9.173,4.107,10.298,9.545
		c1.876,9.076-1.464,17.725-8.519,22.057c-1.395,0.857-2.865,0.498-3.481-0.852c-0.705-1.54-0.281-3.023,1.233-3.86
		c4.68-2.583,7.069-6.838,7.035-12.865c-0.014-2.125-0.461-4.156-1.61-5.956c-1.541-2.414-4.106-3.319-6.42-2.254
		c-2.109,0.974-3.13,3.342-2.672,6.225c0.264,1.671,0.562,3.336,0.805,5.009c0.252,1.76-0.44,2.926-1.816,3.157
		c-1.412,0.237-2.421-0.568-2.722-2.386c-1.325-7.995-2.619-15.995-3.893-23.998c-0.291-1.828,0.403-3.053,1.699-3.272
		c1.344-0.229,2.473,0.779,2.808,2.614c0.531,2.923,1.007,5.855,1.51,8.781C282.075,340.423,282.134,340.453,282.243,340.559z"/>
	<path fill="#198132" d="M330.489,331.638c2.211-0.441,4.357-0.036,6.436,1.016c1.51,0.765,2.027,1.842,1.564,3.105
		c-0.454,1.243-1.476,1.515-2.978,0.793c-3.1-1.488-5.951-0.945-7.944,1.515c-2.222,2.743-2.256,6.907-0.08,9.841
		c2.237,3.016,6.085,3.804,8.868,1.787c0.5-0.363,0.923-0.858,1.39-1.281c0.954-0.861,1.935-0.972,2.838,0.179
		c0.888,1.135,0.501,2.146-0.253,3.064c-3.208,3.904-9.054,4.604-13.172,1.575c-3.652-2.686-5.619-7.935-4.81-12.841
		C323.132,335.636,326.214,332.322,330.489,331.638z"/>
	<path fill="#8BBC21" d="M267.656,341.471c2.159-0.354,4.266-0.028,6.303,1.004c1.528,0.771,2.132,1.976,1.652,3.228
		c-0.462,1.206-1.482,1.437-3.016,0.683c-3.358-1.653-6.58-0.729-8.465,2.452c-1.382,2.332-1.438,4.861-0.328,7.422
		c1.176,2.708,3.168,4.193,5.773,4.434c2.135,0.197,2.99,0.742,3.017,2.133c0.03,1.521-0.927,2.211-3.003,2.166
		c-5.387-0.116-9.643-5.022-10.223-11.789C258.873,347.437,262.496,342.309,267.656,341.471z"/>
	<path fill="#198132" d="M306.342,349.088c1.804-0.306,3.61-0.589,5.417-0.882c1.855-0.301,3.718-0.572,5.566-0.91
		c2.24-0.409,3.12-2.165,2.381-4.676c-0.718-2.438-2.058-4.344-3.966-5.73c-3.947-2.868-8.611-2.575-12.031,0.738
		c-3.4,3.291-4.417,8.868-2.442,13.708c3.368,8.267,12.012,9.379,17.163,3.808c0.879-0.949,1.144-2.094,0.242-3.207
		c-0.896-1.109-1.934-0.89-2.871-0.059c-0.275,0.244-0.52,0.531-0.803,0.765c-2.998,2.478-7.273,1.864-9.345-1.331
		C304.669,349.79,304.799,349.351,306.342,349.088z M304.495,343.533c0.875-2.482,2.578-3.893,4.855-4.28
		c2.202-0.374,4.114,0.562,5.622,2.554c0.774,1.024,0.659,1.628-0.577,1.789c-1.51,0.195-3.005,0.476-4.507,0.719
		c-1.453,0.235-2.906,0.462-4.356,0.709C304.39,345.217,304.104,344.646,304.495,343.533z"/>
</g>
<g>
	<path fill="#8ABC20" d="M167.625,200.167c-0.371-1.68-0.602-3.379,0.078-5.061c1.552-3.841,5.747-6.11,10.101-5.415
		c7.267,1.161,12.677,6.355,13.798,13.248c0.222,1.363-0.478,2.43-1.659,2.526c-1.347,0.111-2.319-0.661-2.49-2.114
		c-0.529-4.486-2.97-7.637-7.439-9.375c-1.575-0.612-3.208-0.849-4.88-0.461c-2.24,0.522-3.667,2.302-3.562,4.458
		c0.096,1.966,1.547,3.474,3.815,3.953c1.313,0.279,2.632,0.529,3.941,0.825c1.376,0.314,2.035,1.208,1.799,2.373
		c-0.242,1.195-1.135,1.764-2.569,1.471c-6.304-1.284-12.604-2.595-18.898-3.922c-1.438-0.304-2.138-1.216-1.918-2.313
		c0.227-1.139,1.307-1.743,2.763-1.473c2.318,0.432,4.627,0.912,6.94,1.367C167.475,200.261,167.515,200.222,167.625,200.167z"/>
	<path fill="#198132" d="M175.274,159.094c0.326-1.892,1.261-3.483,2.652-4.833c1.01-0.979,1.96-1.077,2.758-0.338
		c0.786,0.726,0.685,1.62-0.292,2.606c-2.017,2.035-2.458,4.467-1.226,6.776c1.373,2.574,4.442,3.82,7.254,2.945
		c2.891-0.9,4.61-3.737,3.941-6.546c-0.121-0.505-0.362-0.987-0.537-1.483c-0.355-1.013-0.147-1.828,0.97-2.21
		c1.101-0.375,1.736,0.229,2.192,1.099c1.94,3.7,0.73,8.565-2.725,10.961c-3.065,2.125-7.528,2.156-10.917,0.075
		C176.059,166.129,174.518,162.702,175.274,159.094z"/>
	<path fill="#8BBC21" d="M163.992,212.062c0.375-1.825,1.238-3.409,2.603-4.73c1.022-0.992,2.091-1.121,2.875-0.372
		c0.755,0.721,0.625,1.603-0.386,2.604c-2.214,2.193-2.482,5.032-0.686,7.466c1.316,1.784,3.171,2.57,5.392,2.434
		c2.351-0.145,4.038-1.298,4.985-3.304c0.776-1.645,1.433-2.167,2.468-1.78c1.134,0.421,1.362,1.386,0.715,3.027
		c-1.677,4.26-6.563,6.217-11.739,4.698C165.809,220.81,163.087,216.42,163.992,212.062z"/>
	<path fill="#198132" d="M181.05,183.452c0.306-1.527,0.63-3.051,0.947-4.577c0.325-1.567,0.674-3.131,0.971-4.704
		c0.358-1.905-0.68-3.121-2.756-3.267c-2.015-0.141-3.819,0.368-5.409,1.484c-3.287,2.307-4.447,6.111-3.007,9.807
		c1.431,3.675,5.255,6.117,9.417,5.961c7.109-0.265,10.484-6.83,7.886-12.567c-0.443-0.979-1.211-1.525-2.301-1.132
		c-1.085,0.389-1.229,1.281-0.891,2.271c0.099,0.292,0.239,0.57,0.328,0.864c0.947,3.115-0.769,6.344-3.744,7.059
		C181.075,184.991,180.788,184.759,181.05,183.452z M176.396,183.298c-1.578-1.424-2.118-3.195-1.732-5.124
		c0.374-1.865,1.63-3.116,3.549-3.734c0.986-0.317,1.399-0.049,1.152,0.983c-0.301,1.261-0.535,2.536-0.799,3.804
		c-0.255,1.227-0.516,2.452-0.762,3.68C177.61,183.875,177.103,183.936,176.396,183.298z"/>
</g>
<g>
	<path fill="#8ABC20" d="M350.776,234.583c1.843-0.887,3.741-1.607,5.837-1.2c4.787,0.93,8.397,5.523,8.638,11.071
		c0.399,9.259-4.281,17.262-11.938,20.409c-1.514,0.624-2.908,0.033-3.301-1.398c-0.449-1.633,0.206-3.029,1.836-3.612
		c5.032-1.801,8.072-5.619,9.003-11.575c0.327-2.099,0.21-4.175-0.636-6.137c-1.135-2.629-3.522-3.933-5.977-3.251
		c-2.238,0.623-3.625,2.798-3.634,5.717c-0.007,1.691,0.021,3.382-0.008,5.072c-0.032,1.778-0.902,2.818-2.298,2.826
		c-1.432,0.008-2.299-0.948-2.305-2.792c-0.028-8.104-0.025-16.208-0.002-24.311c0.006-1.851,0.887-2.948,2.201-2.958
		c1.363-0.012,2.316,1.166,2.354,3.031c0.057,2.969,0.057,5.94,0.085,8.909C350.631,234.423,350.686,234.462,350.776,234.583z"/>
	<path fill="#198132" d="M399.828,233.499c2.253-0.083,4.307,0.662,6.19,2.033c1.367,0.995,1.706,2.142,1.047,3.315
		c-0.647,1.154-1.699,1.259-3.066,0.307c-2.821-1.966-5.723-1.886-8.084,0.224c-2.632,2.351-3.332,6.457-1.654,9.701
		c1.726,3.334,5.397,4.729,8.468,3.183c0.552-0.279,1.049-0.699,1.577-1.042c1.079-0.698,2.065-0.65,2.772,0.63
		c0.694,1.262,0.151,2.199-0.74,2.985c-3.791,3.341-9.674,3.095-13.254-0.554c-3.176-3.236-4.276-8.731-2.692-13.444
		C391.926,236.268,395.499,233.491,399.828,233.499z"/>
	<path fill="#8BBC21" d="M336.231,233.149c2.188-0.005,4.215,0.654,6.061,1.999c1.385,1.007,1.788,2.292,1.114,3.451
		c-0.648,1.116-1.693,1.181-3.086,0.19c-3.05-2.169-6.378-1.772-8.748,1.066c-1.737,2.08-2.198,4.568-1.512,7.273
		c0.728,2.861,2.456,4.647,4.989,5.301c2.076,0.536,2.833,1.211,2.637,2.588c-0.214,1.506-1.269,2.034-3.311,1.657
		c-5.299-0.977-8.715-6.501-8.205-13.273C326.606,237.631,331.003,233.15,336.231,233.149z"/>
	<path fill="#198132" d="M373.2,246.86c1.829-0.014,3.658-0.003,5.488-0.003c1.88,0,3.761,0.03,5.641-0.008
		c2.276-0.045,3.426-1.638,3.098-4.235c-0.318-2.521-1.335-4.616-2.997-6.29c-3.438-3.463-8.088-3.92-11.994-1.198
		c-3.884,2.706-5.779,8.047-4.605,13.14c2.002,8.7,10.356,11.181,16.333,6.507c1.02-0.797,1.464-1.884,0.752-3.128
		c-0.706-1.238-1.767-1.188-2.824-0.517c-0.312,0.197-0.599,0.441-0.915,0.625c-3.355,1.965-7.479,0.677-9.011-2.809
		C371.436,247.285,371.634,246.872,373.2,246.86z M372.265,241.081c1.261-2.312,3.168-3.431,5.478-3.449
		c2.233-0.017,3.972,1.213,5.141,3.421c0.601,1.135,0.391,1.712-0.855,1.673c-1.521-0.048-3.043-0.011-4.564-0.012
		c-1.472,0-2.942-0.009-4.413,0.002C371.892,242.726,371.701,242.116,372.265,241.081z"/>
</g>
<g>
	<path fill="#8ABC20" d="M319.182,41.157c1.503-0.407,3.022-0.678,4.518-0.058c3.414,1.417,5.398,5.462,4.735,9.741
		c-1.109,7.142-5.8,12.574-11.965,13.853c-1.22,0.253-2.165-0.403-2.239-1.556c-0.086-1.315,0.613-2.287,1.912-2.493
		c4.01-0.636,6.848-3.109,8.443-7.527c0.562-1.557,0.789-3.163,0.46-4.788c-0.443-2.178-2.021-3.527-3.946-3.368
		c-1.757,0.146-3.117,1.606-3.566,3.838c-0.263,1.292-0.499,2.59-0.775,3.878c-0.294,1.355-1.099,2.023-2.137,1.823
		c-1.064-0.204-1.563-1.064-1.287-2.475c1.208-6.203,2.44-12.402,3.688-18.597c0.285-1.415,1.105-2.124,2.085-1.938
		c1.014,0.192,1.542,1.233,1.286,2.666c-0.408,2.279-0.859,4.552-1.288,6.827C319.099,41.013,319.134,41.051,319.182,41.157z"/>
	<path fill="#198132" d="M355.779,47.556c1.687,0.269,3.099,1.142,4.29,2.468c0.863,0.962,0.941,1.889,0.273,2.689
		c-0.656,0.788-1.453,0.713-2.323-0.217c-1.798-1.92-3.965-2.287-6.038-1.021c-2.312,1.411-3.455,4.449-2.701,7.177
		c0.775,2.805,3.291,4.412,5.807,3.683c0.451-0.132,0.885-0.38,1.329-0.564c0.906-0.375,1.632-0.193,1.963,0.89
		c0.324,1.068-0.221,1.705-1.002,2.174c-3.323,1.997-7.655,0.941-9.761-2.377c-1.867-2.943-1.851-7.309,0.041-10.681
		C349.49,48.51,352.565,46.912,355.779,47.556z"/>
	<path fill="#8BBC21" d="M308.597,37.916c1.625,0.319,3.031,1.122,4.198,2.423c0.875,0.974,0.979,2.017,0.304,2.804
		c-0.651,0.758-1.438,0.654-2.321-0.31c-1.937-2.108-4.468-2.296-6.659-0.474c-1.606,1.335-2.326,3.171-2.227,5.341
		c0.105,2.296,1.118,3.917,2.9,4.791c1.461,0.716,1.921,1.344,1.565,2.368c-0.387,1.12-1.25,1.369-2.71,0.78
		c-3.787-1.528-5.485-6.258-4.079-11.363C300.768,39.926,304.714,37.146,308.597,37.916z"/>
	<path fill="#198132" d="M333.974,53.853c1.361,0.259,2.717,0.537,4.076,0.806c1.396,0.277,2.789,0.577,4.19,0.825
		c1.698,0.301,2.794-0.749,2.944-2.783c0.146-1.975-0.291-3.728-1.271-5.253c-2.028-3.156-5.413-4.19-8.728-2.684
		c-3.295,1.497-5.514,5.303-5.415,9.373c0.166,6.95,5.995,10.079,11.144,7.384c0.878-0.459,1.373-1.225,1.033-2.282
		c-0.337-1.051-1.132-1.169-2.02-0.812c-0.261,0.105-0.512,0.249-0.774,0.344c-2.791,1.008-5.657-0.584-6.266-3.477
		C332.599,53.917,332.809,53.631,333.974,53.853z M334.157,49.295c1.287-1.583,2.874-2.158,4.592-1.832
		c1.661,0.317,2.766,1.513,3.299,3.374c0.274,0.957,0.03,1.368-0.89,1.154c-1.122-0.262-2.258-0.457-3.388-0.682
		c-1.094-0.217-2.185-0.441-3.278-0.648C333.63,50.498,333.581,50.002,334.157,49.295z"/>
</g>
<g>
	<path fill="#8ABC20" d="M466.508,196.407c0.666,1.407,1.201,2.855,0.854,4.436c-0.79,3.611-4.422,6.279-8.751,6.382
		c-7.226,0.17-13.4-3.486-15.748-9.328c-0.466-1.156,0.014-2.202,1.136-2.479c1.279-0.317,2.359,0.199,2.791,1.441
		c1.334,3.834,4.271,6.19,8.901,6.98c1.632,0.278,3.252,0.218,4.794-0.393c2.065-0.821,3.114-2.612,2.617-4.479
		c-0.454-1.704-2.132-2.784-4.408-2.832c-1.318-0.03-2.637-0.034-3.954-0.078c-1.387-0.05-2.186-0.724-2.172-1.781
		c0.013-1.083,0.771-1.727,2.208-1.704c6.318,0.093,12.638,0.21,18.956,0.344c1.443,0.031,2.286,0.713,2.277,1.709
		c-0.01,1.032-0.941,1.736-2.396,1.737c-2.315,0.001-4.632-0.042-6.947-0.062C466.635,196.3,466.604,196.341,466.508,196.407z"/>
	<path fill="#198132" d="M466.677,233.559c0.033,1.708-0.576,3.252-1.671,4.659c-0.795,1.02-1.693,1.261-2.6,0.745
		c-0.892-0.507-0.958-1.304-0.197-2.325c1.572-2.108,1.551-4.307-0.062-6.123c-1.798-2.026-4.989-2.615-7.542-1.391
		c-2.623,1.259-3.761,4.019-2.599,6.366c0.21,0.421,0.53,0.804,0.79,1.208c0.529,0.826,0.479,1.572-0.529,2.089
		c-0.993,0.508-1.716,0.084-2.317-0.602c-2.552-2.918-2.279-7.368,0.614-10.027c2.567-2.358,6.867-3.113,10.521-1.848
		C464.627,227.537,466.743,230.282,466.677,233.559z"/>
	<path fill="#8BBC21" d="M467.828,185.416c-0.027,1.656-0.568,3.182-1.644,4.561c-0.804,1.033-1.812,1.32-2.705,0.794
		c-0.861-0.507-0.898-1.299-0.106-2.339c1.733-2.279,1.471-4.803-0.71-6.638c-1.599-1.345-3.532-1.729-5.651-1.248
		c-2.241,0.51-3.657,1.792-4.202,3.701c-0.446,1.564-0.983,2.128-2.055,1.959c-1.171-0.183-1.568-0.988-1.246-2.53
		c0.835-3.997,5.189-6.505,10.463-6.023C464.465,178.065,467.898,181.458,467.828,185.416z"/>
	<path fill="#198132" d="M456.626,213.21c-0.015,1.386-0.048,2.769-0.073,4.155c-0.025,1.423-0.075,2.847-0.071,4.27
		c0.004,1.725,1.23,2.618,3.26,2.406c1.97-0.206,3.617-0.945,4.946-2.179c2.747-2.554,3.167-6.068,1.099-9.064
		c-2.056-2.978-6.194-4.489-10.183-3.673c-6.812,1.392-8.861,7.682-5.298,12.273c0.606,0.783,1.447,1.135,2.428,0.614
		c0.975-0.518,0.95-1.321,0.441-2.131c-0.149-0.238-0.335-0.459-0.475-0.701c-1.486-2.569-0.425-5.672,2.314-6.782
		C456.32,211.868,456.638,212.024,456.626,213.21z M461.144,212.584c1.786,0.987,2.633,2.447,2.614,4.196
		c-0.018,1.691-1,2.989-2.737,3.843c-0.894,0.439-1.341,0.271-1.294-0.672c0.06-1.151,0.051-2.303,0.072-3.455
		c0.021-1.115,0.048-2.229,0.06-3.341C459.868,212.279,460.346,212.142,461.144,212.584z"/>
</g>
<g>
	<path fill="#8ABC20" d="M193.479,321.697c-1.049-0.776-2.037-1.632-2.548-2.925c-1.169-2.954-0.177-6.31,2.41-8.051
		c4.32-2.906,9.75-2.601,13.851,0.781c0.811,0.669,0.998,1.62,0.441,2.257c-0.633,0.724-1.527,0.762-2.358,0.017
		c-2.564-2.3-5.429-2.898-8.608-1.695c-1.121,0.424-2.079,1.092-2.739,2.134c-0.882,1.398-0.702,3.115,0.454,4.294
		c1.055,1.075,2.57,1.222,3.978,0.381c0.816-0.485,1.621-0.99,2.443-1.466c0.866-0.497,1.661-0.31,2.136,0.472
		c0.488,0.8,0.32,1.563-0.565,2.1c-3.888,2.364-7.789,4.71-11.696,7.044c-0.892,0.533-1.717,0.357-2.167-0.378
		c-0.466-0.76-0.221-1.635,0.665-2.196c1.409-0.893,2.838-1.753,4.257-2.629C193.451,321.824,193.451,321.782,193.479,321.697z"/>
	<path fill="#198132" d="M176.397,294.508c-0.801-1.24-1.136-2.607-1.111-4.062c0.017-1.054,0.454-1.576,1.242-1.547
		c0.774,0.029,1.179,0.588,1.183,1.63c0.007,2.152,1.024,3.756,2.836,4.469c2.02,0.795,4.232-0.003,5.226-1.883
		c1.022-1.934,0.453-4.396-1.328-5.67c-0.319-0.229-0.689-0.386-1.032-0.583c-0.7-0.402-1.01-0.97-0.634-1.736
		c0.373-0.755,1.007-0.723,1.687-0.45c2.887,1.157,4.755,4.527,4.208,7.592c-0.485,2.719-2.757,4.928-5.56,5.404
		C180.397,298.137,177.854,296.938,176.397,294.508z"/>
	<path fill="#8BBC21" d="M197.699,330.269c-0.74-1.226-1.108-2.553-1.083-3.979c0.016-1.066,0.499-1.666,1.283-1.624
		c0.756,0.041,1.141,0.608,1.134,1.675c-0.014,2.339,1.299,4.091,3.466,4.598c1.588,0.371,2.941-0.092,4.01-1.261
		c1.132-1.236,1.407-2.722,0.867-4.333c-0.444-1.319-0.374-1.939,0.355-2.228c0.796-0.316,1.406,0.122,1.915,1.376
		c1.318,3.254-0.187,6.77-3.617,8.445C203.105,334.367,199.465,333.199,197.699,330.269z"/>
	<path fill="#198132" d="M191.815,305.566c-0.625-1.021-1.236-2.049-1.854-3.075c-0.635-1.054-1.255-2.118-1.908-3.16
		c-0.791-1.264-1.945-1.447-3.084-0.511c-1.105,0.909-1.771,2.086-2.016,3.503c-0.505,2.931,0.846,5.67,3.474,7.072
		c2.613,1.393,5.823,0.909,7.877-1.225c3.511-3.644,1.883-9.047-2.383-11.043c-0.728-0.341-1.4-0.276-1.758,0.484
		c-0.358,0.754,0.024,1.335,0.705,1.734c0.2,0.116,0.414,0.207,0.609,0.33c2.079,1.313,2.851,3.998,1.69,5.867
		C192.615,306.434,192.35,306.442,191.815,305.566z M189.351,307.766c-1.538-0.037-2.721-0.783-3.509-2.073
		c-0.762-1.247-0.757-2.577-0.09-3.872c0.343-0.666,0.692-0.716,1.094-0.005c0.49,0.866,1.022,1.708,1.535,2.562
		c0.498,0.826,0.989,1.653,1.491,2.475C190.268,307.498,190.039,307.782,189.351,307.766z"/>
</g>
<path fill-rule="evenodd" clip-rule="evenodd" fill="#198132" d="M257.125,102.242"/>
<path fill-rule="evenodd" clip-rule="evenodd" fill="#198132" d="M234.692,128.513"/>
<path fill-rule="evenodd" clip-rule="evenodd" fill="#198132" d="M132.568,157.7c-0.991-1.832,0.251-3.233,0.614-4.625
	c2.885-11.079,6.622-21.794,11.537-31.844c6.899-14.107,14.954-27.34,24.739-39.215c8.707-10.565,18.496-19.79,29.038-28.083
	c4.592-3.612,9.53-6.728,14.37-9.976c0.916-0.613,2.179-0.572,2.869,0.696c0.827,1.518,0.995,2.886-0.684,3.975
	c-5.632,3.652-11.232,7.353-16.527,11.564c-7.283,5.793-13.957,12.303-20.327,19.238c-9.37,10.201-17.29,21.644-24.201,33.966
	c-4.442,7.919-8.268,16.269-11.385,24.966c-2.174,6.064-4.58,12.075-5.72,18.623c-0.201,1.147-0.45,2.966-2.059,2.796
	C133.914,159.683,132.694,159.158,132.568,157.7z"/>
<path fill-rule="evenodd" clip-rule="evenodd" fill="#198132" d="M137.031,159.612c-0.991-1.832,0.251-3.233,0.614-4.625
	c2.885-11.079,6.622-21.794,11.537-31.844c6.899-14.107,14.954-27.34,24.739-39.215c8.707-10.565,18.496-19.79,29.038-28.083
	c4.592-3.612,9.53-6.728,14.37-9.976c0.915-0.613,2.179-0.572,2.869,0.696c0.826,1.518,0.994,2.886-0.685,3.975
	c-5.632,3.652-11.232,7.353-16.527,11.564c-7.282,5.793-13.957,12.303-20.327,19.238c-9.37,10.201-17.29,21.644-24.201,33.966
	c-4.442,7.919-8.268,16.269-11.385,24.966c-2.174,6.064-4.58,12.075-5.72,18.623c-0.201,1.147-0.45,2.966-2.059,2.796
	C138.376,161.595,137.156,161.07,137.031,159.612z"/>
<path fill-rule="evenodd" clip-rule="evenodd" fill="#198132" d="M559.698,178.618c0.745,4.7,1.695,8.203,1.733,11.43
	c0.069,5.92,1.705,11.709,1.095,17.664c-0.191,1.862-0.055,3.879,0.036,5.803c0.571,12.407-1.033,24.573-2.874,36.735
	c-2.144,14.145-6.218,27.69-11.219,40.893c-2.931,7.734-6.425,15.248-10.307,22.525c-0.891,1.672-2.055,2.76-4.005,1.486
	c-1.932-1.264-0.784-2.678-0.14-3.932c5.109-9.928,9.794-20.063,13.301-30.775c4.755-14.524,8.2-29.42,9.726-44.72
	c0.827-8.298,1.14-16.688,0.957-25.101c-0.199-9.195-0.482-18.397-2.064-27.434c-1.562-8.925-3.202-17.843-5.796-26.599
	c-1.763-5.944-3.62-11.826-5.726-17.637c-0.563-1.552,0.375-2.617,1.368-3.05c1.407-0.613,2.716,0.12,3.297,1.73
	c0.941,2.611,1.831,5.243,2.696,7.883c2.613,7.965,4.659,16.081,6.524,24.272C559.073,173.176,559.224,176.585,559.698,178.618z"/>
<g>
	<g>
		<path fill="#198132" d="M474.136,154.858c3.225,0,3.225-5,0-5S470.912,154.858,474.136,154.858L474.136,154.858z"/>
	</g>
</g>
<g>
	<g>
		<path fill="#198132" d="M474.053,153.691c3.225,0,3.225-5,0-5S470.829,153.691,474.053,153.691L474.053,153.691z"/>
	</g>
</g>
<g>
	<g>
		<path fill="#198132" d="M474.803,154.441c3.225,0,3.225-5,0-5S471.579,154.441,474.803,154.441L474.803,154.441z"/>
	</g>
</g>
<g>
	<g>
		<path fill="#198132" d="M475.553,155.441c3.225,0,3.225-5,0-5S472.329,155.441,475.553,155.441L475.553,155.441z"/>
	</g>
</g>
<g>
	<g>
		<path fill="#198132" d="M476.136,155.774c3.225,0,3.225-5,0-5S472.912,155.774,476.136,155.774L476.136,155.774z"/>
	</g>
</g>
<g>
	<g>
		<path fill="#198132" d="M476.219,155.608c3.225,0,3.225-5,0-5S472.995,155.608,476.219,155.608L476.219,155.608z"/>
	</g>
</g>
<g>
	<g>
		<path fill="#198132" d="M476.553,155.524c3.225,0,3.225-5,0-5S473.329,155.524,476.553,155.524L476.553,155.524z"/>
	</g>
</g>
<g>
	<g>
		<path fill="#198132" d="M476.803,155.524c3.225,0,3.225-5,0-5S473.579,155.524,476.803,155.524L476.803,155.524z"/>
	</g>
</g>
</svg>
